<svg id="b4f0303b-9d12-4ce2-894c-725d58de402b" data-name="Layer 1" xmlns="http://www.w3.org/2000/svg" viewBox="0 0 436.02 301.6"><defs><style>.b4adb3c3-7983-4352-8a36-19ebef0939d4{fill:#ccc;}.a432ed69-c382-40a3-ac28-ce6262487b30,.bf070623-6e7d-42a3-a14a-8799db3c451a{fill:red;stroke:red;stroke-miterlimit:10;}.bf070623-6e7d-42a3-a14a-8799db3c451a{stroke-width:5px;}</style></defs><title>a1</title><path d="M448.77,250.85A596.35,596.35,0,0,0,385.06,176C350.64,142,299.27,101.5,250,101.5s-100.66,40.55-135.09,74.57a595,595,0,0,0-63.68,74.78l-2.46-1.7a597.88,597.88,0,0,1,64-75.22C147.63,139.52,199.7,98.5,250,98.5s102.37,41,137.2,75.43a597.88,597.88,0,0,1,64,75.22Z" transform="translate(-31.99 -98.5)"/><path class="b4adb3c3-7983-4352-8a36-19ebef0939d4" d="M250,400.1c-50.29,0-102.37-40.64-137.19-74.73a593.76,593.76,0,0,1-64-74.51l2.46-1.72a590.47,590.47,0,0,0,63.71,74.12C149.36,357,200.73,397.1,250,397.1s100.67-40.17,135.09-73.87a590.66,590.66,0,0,0,63.68-74.09l2.46,1.72a593.76,593.76,0,0,1-64,74.51C352.37,359.46,300.29,400.1,250,400.1Z" transform="translate(-31.99 -98.5)"/><circle class="a432ed69-c382-40a3-ac28-ce6262487b30" cx="218.01" cy="151.5" r="12.22"/><line class="bf070623-6e7d-42a3-a14a-8799db3c451a" x1="34.25" y1="134.4" x2="1.77" y2="166.88"/><line class="bf070623-6e7d-42a3-a14a-8799db3c451a" x1="34.25" y1="166.88" x2="1.77" y2="134.4"/><line class="bf070623-6e7d-42a3-a14a-8799db3c451a" x1="434.25" y1="136.11" x2="401.77" y2="168.59"/><line class="bf070623-6e7d-42a3-a14a-8799db3c451a" x1="434.25" y1="168.59" x2="401.77" y2="136.11"/></svg>