<svg id="b583d528-6d35-4c8a-a688-93cae0ce66d5" data-name="Layer 1" xmlns="http://www.w3.org/2000/svg" viewBox="0 0 436.02 153.8"><defs><style>.b50b354a-042e-49a0-93dc-c0006b9aaf4b{stroke:#000;}.a14470e4-21dc-4485-8dcd-b6ce9483e6ee,.b372b718-8d65-4c9e-ad4a-c2a3db0c9b13,.b50b354a-042e-49a0-93dc-c0006b9aaf4b,.f6faa7e0-f172-4244-918c-cab646ae6cb9{stroke-miterlimit:10;}.a14470e4-21dc-4485-8dcd-b6ce9483e6ee,.b50b354a-042e-49a0-93dc-c0006b9aaf4b{stroke-width:3px;}.a14470e4-21dc-4485-8dcd-b6ce9483e6ee{fill:#ccc;stroke:#b3b3b3;}.b372b718-8d65-4c9e-ad4a-c2a3db0c9b13,.f6faa7e0-f172-4244-918c-cab646ae6cb9{fill:red;stroke:red;}.b372b718-8d65-4c9e-ad4a-c2a3db0c9b13{stroke-width:5px;}</style></defs><title>a2</title><path class="b50b354a-042e-49a0-93dc-c0006b9aaf4b" d="M248.77,250.08a297.27,297.27,0,0,0-31.86-37.41c-17.21-17-42.89-37.27-67.53-37.27s-50.33,20.27-67.54,37.28A297.19,297.19,0,0,0,50,250.08l-1.23-.86a299.88,299.88,0,0,1,32-37.6c17.42-17.21,43.45-37.72,68.6-37.72s51.19,20.51,68.6,37.72a299.48,299.48,0,0,1,32,37.6Z" transform="translate(-31.99 -172.4)"/><path class="a14470e4-21dc-4485-8dcd-b6ce9483e6ee" d="M149.38,324.7c-25.14,0-51.18-20.32-68.59-37.36a297.93,297.93,0,0,1-32-37.26l1.23-.86a294.63,294.63,0,0,0,31.85,37.06c17.21,16.84,42.9,36.92,67.53,36.92s50.34-20.09,67.55-36.94a294.69,294.69,0,0,0,31.84-37l1.23.86a297.93,297.93,0,0,1-32,37.26C200.57,304.38,174.53,324.7,149.38,324.7Z" transform="translate(-31.99 -172.4)"/><path class="b50b354a-042e-49a0-93dc-c0006b9aaf4b" d="M450,248.37a295,295,0,0,1-31.85,37.12c-17.21,16.87-42.9,37-67.53,37s-50.33-20.12-67.55-37a295.1,295.1,0,0,1-31.84-37.1l-1.23.85a297.87,297.87,0,0,0,32,37.31C299.43,303.6,325.47,324,350.62,324s51.18-20.35,68.6-37.42a298.27,298.27,0,0,0,32-37.31Z" transform="translate(-31.99 -172.4)"/><path class="a14470e4-21dc-4485-8dcd-b6ce9483e6ee" d="M350.62,174.33c-25.15,0-51.19,20.16-68.6,37.07a294.72,294.72,0,0,0-32,37l1.23.85a293.45,293.45,0,0,1,31.86-36.77c17.21-16.71,42.89-36.63,67.53-36.63s50.33,19.93,67.54,36.65A293.91,293.91,0,0,1,450,249.22l1.23-.85a294.72,294.72,0,0,0-32-37C401.8,194.49,375.76,174.33,350.62,174.33Z" transform="translate(-31.99 -172.4)"/><circle class="f6faa7e0-f172-4244-918c-cab646ae6cb9" cx="120.02" cy="76.82" r="12.22"/><line class="b372b718-8d65-4c9e-ad4a-c2a3db0c9b13" x1="434.25" y1="59.73" x2="401.77" y2="92.21"/><line class="b372b718-8d65-4c9e-ad4a-c2a3db0c9b13" x1="434.25" y1="92.21" x2="401.77" y2="59.73"/><line class="b372b718-8d65-4c9e-ad4a-c2a3db0c9b13" x1="34.25" y1="61.44" x2="1.77" y2="93.92"/><line class="b372b718-8d65-4c9e-ad4a-c2a3db0c9b13" x1="34.25" y1="93.92" x2="1.77" y2="61.44"/><line class="b372b718-8d65-4c9e-ad4a-c2a3db0c9b13" x1="234.25" y1="61.44" x2="201.77" y2="93.92"/><line class="b372b718-8d65-4c9e-ad4a-c2a3db0c9b13" x1="234.25" y1="93.92" x2="201.77" y2="61.44"/><circle class="f6faa7e0-f172-4244-918c-cab646ae6cb9" cx="318.01" cy="76.82" r="12.22"/></svg>