<svg id="b6cc2cb9-4599-4458-8159-efdc98679d27" data-name="Layer 1" xmlns="http://www.w3.org/2000/svg" viewBox="0 0 430.78 105.93"><defs><style>.b2bc7d68-67ec-4d63-bf87-3db671546019{stroke:#000;}.b2bc7d68-67ec-4d63-bf87-3db671546019,.b9a7b934-018e-41f4-bcbf-7a78d78f86ce,.e45bbbba-d7a0-497d-a29c-e49ca25a9aea,.e6ada1d1-3e51-4f3e-bf63-c1694d0c5ffc{stroke-miterlimit:10;}.b2bc7d68-67ec-4d63-bf87-3db671546019,.e6ada1d1-3e51-4f3e-bf63-c1694d0c5ffc{stroke-width:3px;}.e6ada1d1-3e51-4f3e-bf63-c1694d0c5ffc{fill:#ccc;stroke:#b3b3b3;}.b9a7b934-018e-41f4-bcbf-7a78d78f86ce,.e45bbbba-d7a0-497d-a29c-e49ca25a9aea{fill:red;stroke:red;}.b9a7b934-018e-41f4-bcbf-7a78d78f86ce{stroke-width:5px;}</style></defs><title>a3</title><path class="b2bc7d68-67ec-4d63-bf87-3db671546019" d="M179.51,249.83a201.29,201.29,0,0,0-21.6-25.36c-11.66-11.53-29.07-25.27-45.77-25.27S78,213,66.35,224.48a201.41,201.41,0,0,0-21.58,25.35l-.84-.58a202.92,202.92,0,0,1,21.71-25.5c11.8-11.66,29.45-25.56,46.5-25.56s34.7,13.9,46.5,25.56a201.31,201.31,0,0,1,21.7,25.5Z" transform="translate(-31.99 -196.69)"/><path class="e6ada1d1-3e51-4f3e-bf63-c1694d0c5ffc" d="M112.14,300.41c-17,0-34.7-13.77-46.5-25.33a202.4,202.4,0,0,1-21.71-25.25l.84-.58a200.63,200.63,0,0,0,21.59,25.12c11.67,11.41,29.08,25,45.78,25s34.12-13.61,45.79-25a201.37,201.37,0,0,0,21.58-25.11l.83.58a201.79,201.79,0,0,1-21.7,25.25C146.83,286.64,129.18,300.41,112.14,300.41Z" transform="translate(-31.99 -196.69)"/><path class="b2bc7d68-67ec-4d63-bf87-3db671546019" d="M315.92,248.67a200.29,200.29,0,0,1-21.59,25.16c-11.67,11.44-29.08,25.07-45.78,25.07s-34.12-13.64-45.79-25.08a200,200,0,0,1-21.58-25.15l-.84.57a201.53,201.53,0,0,0,21.71,25.3c11.8,11.57,29.45,25.37,46.5,25.37s34.7-13.8,46.5-25.37a201.53,201.53,0,0,0,21.71-25.3Z" transform="translate(-31.99 -196.69)"/><path class="e6ada1d1-3e51-4f3e-bf63-c1694d0c5ffc" d="M248.55,198.48c-17.05,0-34.7,13.67-46.5,25.13a198.28,198.28,0,0,0-21.7,25.06l.83.58a199.11,199.11,0,0,1,21.59-24.93c11.67-11.33,29.08-24.83,45.78-24.83s34.12,13.51,45.79,24.84a198.84,198.84,0,0,1,21.58,24.92l.83-.58a198.28,198.28,0,0,0-21.7-25.06C283.25,212.15,265.6,198.48,248.55,198.48Z" transform="translate(-31.99 -196.69)"/><circle class="e45bbbba-d7a0-497d-a29c-e49ca25a9aea" cx="81.93" cy="52.56" r="8.28"/><line class="b9a7b934-018e-41f4-bcbf-7a78d78f86ce" x1="23.79" y1="42.13" x2="1.77" y2="64.15"/><line class="b9a7b934-018e-41f4-bcbf-7a78d78f86ce" x1="23.79" y1="64.15" x2="1.77" y2="42.13"/><line class="b9a7b934-018e-41f4-bcbf-7a78d78f86ce" x1="159.36" y1="42.13" x2="137.34" y2="64.15"/><line class="b9a7b934-018e-41f4-bcbf-7a78d78f86ce" x1="159.36" y1="64.15" x2="137.34" y2="42.13"/><circle class="e45bbbba-d7a0-497d-a29c-e49ca25a9aea" cx="218.01" cy="53.14" r="8.28"/><path class="b2bc7d68-67ec-4d63-bf87-3db671546019" d="M451.49,250.53a201.27,201.27,0,0,0-21.59-25.36c-11.67-11.52-29.08-25.26-45.77-25.26S350,213.66,338.34,225.19a201.54,201.54,0,0,0-21.58,25.34l-.84-.57a202.31,202.31,0,0,1,21.7-25.5c11.81-11.66,29.46-25.56,46.51-25.56s34.69,13.9,46.5,25.56a202.31,202.31,0,0,1,21.7,25.5Z" transform="translate(-31.99 -196.69)"/><path class="e6ada1d1-3e51-4f3e-bf63-c1694d0c5ffc" d="M384.13,301.12c-17.05,0-34.7-13.77-46.5-25.33a201.25,201.25,0,0,1-21.71-25.26l.83-.58a200.09,200.09,0,0,0,21.6,25.13c11.66,11.41,29.08,25,45.78,25s34.12-13.61,45.78-25A199.34,199.34,0,0,0,451.5,250l.83.58a200.64,200.64,0,0,1-21.7,25.26C418.82,287.35,401.17,301.12,384.13,301.12Z" transform="translate(-31.99 -196.69)"/><line class="b9a7b934-018e-41f4-bcbf-7a78d78f86ce" x1="294.94" y1="42.3" x2="272.92" y2="64.32"/><line class="b9a7b934-018e-41f4-bcbf-7a78d78f86ce" x1="294.94" y1="64.32" x2="272.92" y2="42.3"/><circle class="e45bbbba-d7a0-497d-a29c-e49ca25a9aea" cx="356.47" cy="53.85" r="8.28"/><line class="b9a7b934-018e-41f4-bcbf-7a78d78f86ce" x1="429.02" y1="42.84" x2="407" y2="64.85"/><line class="b9a7b934-018e-41f4-bcbf-7a78d78f86ce" x1="429.02" y1="64.85" x2="407" y2="42.84"/></svg>