<svg id="a112ebba-8b7b-4db9-a3c3-5d5262b19ec4" data-name="Layer 1" xmlns="http://www.w3.org/2000/svg" viewBox="0 0 412.73 155"><defs><style>.aec0c46a-4261-4388-91b3-f9b910176f26,.b81bceb3-c8d8-4e08-ab9c-863d8310b422{fill:none;}.aec0c46a-4261-4388-91b3-f9b910176f26{stroke:#000;}.a7f3b7db-5784-4bb9-9521-540ca96b0523,.aec0c46a-4261-4388-91b3-f9b910176f26,.b81bceb3-c8d8-4e08-ab9c-863d8310b422,.ea02bed5-cf83-4c2c-9f7b-28d4592a17de{stroke-miterlimit:10;}.a7f3b7db-5784-4bb9-9521-540ca96b0523,.aec0c46a-4261-4388-91b3-f9b910176f26,.b81bceb3-c8d8-4e08-ab9c-863d8310b422{stroke-width:5px;}.b81bceb3-c8d8-4e08-ab9c-863d8310b422{stroke:#b3b3b3;}.a7f3b7db-5784-4bb9-9521-540ca96b0523,.ea02bed5-cf83-4c2c-9f7b-28d4592a17de{fill:red;stroke:red;}</style></defs><title>b2</title><path class="aec0c46a-4261-4388-91b3-f9b910176f26" d="M50,175c47.76,0,99.53,75,99.53,75S202.9,325,250,325" transform="translate(-43.39 -172.5)"/><path class="b81bceb3-c8d8-4e08-ab9c-863d8310b422" d="M250,175c-47.76,0-99.53,75-99.53,75S97.1,325,50,325" transform="translate(-43.39 -172.5)"/><circle class="ea02bed5-cf83-4c2c-9f7b-28d4592a17de" cx="6.61" cy="77.5" r="6.11"/><line class="a7f3b7db-5784-4bb9-9521-540ca96b0523" x1="114.73" y1="69.38" x2="98.49" y2="85.62"/><line class="a7f3b7db-5784-4bb9-9521-540ca96b0523" x1="114.73" y1="85.62" x2="98.49" y2="69.38"/><path class="aec0c46a-4261-4388-91b3-f9b910176f26" d="M248.93,325c47.89,0,99.81-75,99.81-75s53.52-75,100.75-75" transform="translate(-43.39 -172.5)"/><path class="b81bceb3-c8d8-4e08-ab9c-863d8310b422" d="M449.49,325c-47.89,0-99.81-75-99.81-75s-53.51-75-100.75-75" transform="translate(-43.39 -172.5)"/><ellipse class="ea02bed5-cf83-4c2c-9f7b-28d4592a17de" cx="406.1" cy="77.5" rx="6.13" ry="6.11"/><line class="a7f3b7db-5784-4bb9-9521-540ca96b0523" x1="313.96" y1="85.62" x2="297.68" y2="69.38"/><line class="a7f3b7db-5784-4bb9-9521-540ca96b0523" x1="313.96" y1="69.38" x2="297.68" y2="85.62"/><ellipse class="ea02bed5-cf83-4c2c-9f7b-28d4592a17de" cx="206.61" cy="77.5" rx="6.13" ry="6.11"/></svg>