<svg id="bb540d85-f2b8-43c9-bd6a-7c78dc3fc6de" data-name="Layer 1" xmlns="http://www.w3.org/2000/svg" viewBox="0 0 405.19 105.39"><defs><style>.ea370c99-5760-4729-92e2-531ebff15ba6,.f62949d8-dd7c-4a46-9a45-49ae66cbc771{fill:none;}.ea370c99-5760-4729-92e2-531ebff15ba6{stroke:#000;}.aed536f1-93e1-48ca-8199-3e69e97bfe25,.b9fdba58-1a06-4562-a487-2e1f6325f542,.ea370c99-5760-4729-92e2-531ebff15ba6,.f62949d8-dd7c-4a46-9a45-49ae66cbc771{stroke-miterlimit:10;}.b9fdba58-1a06-4562-a487-2e1f6325f542,.ea370c99-5760-4729-92e2-531ebff15ba6,.f62949d8-dd7c-4a46-9a45-49ae66cbc771{stroke-width:5px;}.f62949d8-dd7c-4a46-9a45-49ae66cbc771{stroke:#b3b3b3;}.aed536f1-93e1-48ca-8199-3e69e97bfe25,.b9fdba58-1a06-4562-a487-2e1f6325f542{fill:red;stroke:red;}</style></defs><title>b3</title><path class="ea370c99-5760-4729-92e2-531ebff15ba6" d="M50,199.8c32,0,66.61,50.2,66.61,50.2s35.72,50.2,67.25,50.2" transform="translate(-50 -197.3)"/><path class="f62949d8-dd7c-4a46-9a45-49ae66cbc771" d="M183.86,199.8c-32,0-66.62,50.2-66.62,50.2S81.53,300.2,50,300.2" transform="translate(-50 -197.3)"/><circle class="aed536f1-93e1-48ca-8199-3e69e97bfe25" cx="7.82" cy="52.7" r="4.09"/><line class="b9fdba58-1a06-4562-a487-2e1f6325f542" x1="72.36" y1="47.26" x2="61.49" y2="58.13"/><line class="b9fdba58-1a06-4562-a487-2e1f6325f542" x1="72.36" y1="58.13" x2="61.49" y2="47.26"/><path class="ea370c99-5760-4729-92e2-531ebff15ba6" d="M183.14,300.2c32.05,0,66.8-50.2,66.8-50.2s35.82-50.2,67.43-50.2" transform="translate(-50 -197.3)"/><path class="f62949d8-dd7c-4a46-9a45-49ae66cbc771" d="M317.37,300.2c-32.05,0-66.8-50.2-66.8-50.2s-35.82-50.2-67.43-50.2" transform="translate(-50 -197.3)"/><ellipse class="aed536f1-93e1-48ca-8199-3e69e97bfe25" cx="266.1" cy="52.46" rx="4.09" ry="4.1"/><line class="b9fdba58-1a06-4562-a487-2e1f6325f542" x1="205.71" y1="58.13" x2="194.81" y2="47.26"/><line class="b9fdba58-1a06-4562-a487-2e1f6325f542" x1="205.71" y1="47.26" x2="194.81" y2="58.13"/><ellipse class="aed536f1-93e1-48ca-8199-3e69e97bfe25" cx="133.86" cy="52.7" rx="4.1" ry="4.09"/><path class="f62949d8-dd7c-4a46-9a45-49ae66cbc771" d="M317.37,300.2c31.91,0,66.49-50,66.49-50s35.65-50,67.12-50" transform="translate(-50 -197.3)"/><path class="ea370c99-5760-4729-92e2-531ebff15ba6" d="M451,299.73c-31.9,0-66.49-50-66.49-50s-35.65-50-67.12-50" transform="translate(-50 -197.3)"/><ellipse class="aed536f1-93e1-48ca-8199-3e69e97bfe25" cx="400.61" cy="52.93" rx="4.08" ry="4.07"/><line class="b9fdba58-1a06-4562-a487-2e1f6325f542" x1="339.6" y1="58.34" x2="328.75" y2="47.52"/><line class="b9fdba58-1a06-4562-a487-2e1f6325f542" x1="339.6" y1="47.52" x2="328.75" y2="58.34"/></svg>