<svg xmlns="http://www.w3.org/2000/svg" viewBox="0 0 500 326"><defs><style>.a{fill:none;stroke-width:4px;}.a,.b{stroke:#000;stroke-miterlimit:10;}.b{stroke-width:7px;}.c{fill:#202020;}</style></defs><title>force_extension</title><line class="a" x1="35.5" y1="0.5" x2="35.5" y2="326"/><line class="a" y1="289.5" x2="499.5" y2="289.5"/><path class="a" d="M35.5,289.5c.5.5,83-152,83-152,32-41,61.05-50,102-48,82,4,81.9,19,147,21,32,1,68-5,111-10"/><line class="a" x1="111.5" y1="290" x2="111" y2="151"/><circle class="b" cx="118.5" cy="137.5" r="2"/><path class="c" d="M240.89,210.62c-23.42,1-47.27-4.5-67.47-16.47a117,117,0,0,1-27.31-22,122.82,122.82,0,0,1-11-13.75c-.83-1.21-1.62-2.45-2.42-3.68l-.87-1.4-.37-.6,3.59-2.17A113.15,113.15,0,0,1,124,144a121.69,121.69,0,0,0-.17,13.4l3.59-2.18.39.62.9,1.46c.82,1.28,1.65,2.56,2.51,3.81a127.32,127.32,0,0,0,11.39,14.3A122.08,122.08,0,0,0,171,198.26l4,2.28,4.09,2.05,2.05,1,2.1.91c1.4.6,2.79,1.23,4.2,1.81a139.76,139.76,0,0,0,17.41,5.54,132.19,132.19,0,0,0,36.28,3.51Z"/><polygon class="c" points="156.12 44.5 156.12 83.61 151.92 83.61 158.5 95 165.08 83.61 160.88 83.61 160.88 44.5 156.12 44.5"/><polygon class="c" points="240.5 248.12 94.39 248.12 94.39 243.92 83 250.5 94.39 257.08 94.39 252.88 240.5 252.88 240.5 248.12"/><path d="M94.08,27.93H87.6v2.6h6v2.13h-6V35.8h6.78V38H85.11V25.77h9Z"/><path d="M98.6,38H96.23V25.77H98.6Z"/><path d="M104.49,32.5a4,4,0,0,0,.94-.21.71.71,0,0,0,.51-.67.8.8,0,0,0-.39-.77,2.48,2.48,0,0,0-1.15-.21,1.51,1.51,0,0,0-1.2.41,1.8,1.8,0,0,0-.34.83h-2.28a3.43,3.43,0,0,1,.67-1.95,3.88,3.88,0,0,1,3.23-1.19,5.65,5.65,0,0,1,2.65.59,2.26,2.26,0,0,1,1.16,2.22V35.7c0,.29,0,.64,0,1a1.21,1.21,0,0,0,.14.63.82.82,0,0,0,.35.27V38h-2.58a2.88,2.88,0,0,1-.15-.51c0-.16,0-.35-.06-.55a4.77,4.77,0,0,1-1.14.9,3.35,3.35,0,0,1-1.73.44,3,3,0,0,1-2-.7,2.5,2.5,0,0,1-.8-2,2.57,2.57,0,0,1,1.29-2.41,5.78,5.78,0,0,1,2.1-.58Zm1.44,1.1a2.2,2.2,0,0,1-.46.23,3.54,3.54,0,0,1-.63.16l-.54.1a3.54,3.54,0,0,0-1.09.33,1.08,1.08,0,0,0-.56,1,1.06,1.06,0,0,0,.35.88,1.27,1.27,0,0,0,.83.27,2.44,2.44,0,0,0,1.42-.45,1.88,1.88,0,0,0,.68-1.64Z"/><path d="M112.19,35.11a1.57,1.57,0,0,0,.33.9,2.17,2.17,0,0,0,1.63.47,2.67,2.67,0,0,0,1.12-.2.68.68,0,0,0,.41-.63.67.67,0,0,0-.33-.6,13.71,13.71,0,0,0-2.48-.72,5.08,5.08,0,0,1-2.17-.95,2.08,2.08,0,0,1-.63-1.63,2.84,2.84,0,0,1,1-2.15,4,4,0,0,1,2.78-.9,5.08,5.08,0,0,1,2.76.67,2.89,2.89,0,0,1,1.23,2.34h-2.37a1.46,1.46,0,0,0-.25-.72,1.64,1.64,0,0,0-1.34-.48,1.93,1.93,0,0,0-1.1.24.69.69,0,0,0-.33.56.62.62,0,0,0,.35.59,15,15,0,0,0,2.47.66,4.51,4.51,0,0,1,2.12,1,2.26,2.26,0,0,1,.7,1.7,2.78,2.78,0,0,1-1,2.2,6,6,0,0,1-6.26-.05,2.93,2.93,0,0,1-1-2.3Z"/><path d="M118.88,30.72V29h1.26V26.51h2.34V29H124v1.68h-1.47V35.5a1,1,0,0,0,.15.7,1.57,1.57,0,0,0,.86.13H124v1.76l-1.12.05a3,3,0,0,1-2.29-.58,1.78,1.78,0,0,1-.4-1.26V30.72Z"/><path d="M127.91,27.88h-2.4V25.69h2.4ZM125.51,29h2.4V38h-2.4Z"/><path d="M135.61,32.2a2.18,2.18,0,0,0-.34-.91,1.43,1.43,0,0,0-1.24-.55,1.62,1.62,0,0,0-1.64,1.19,4.79,4.79,0,0,0-.23,1.67,4.48,4.48,0,0,0,.23,1.6,1.58,1.58,0,0,0,1.6,1.13,1.42,1.42,0,0,0,1.18-.45,2.27,2.27,0,0,0,.42-1.17H138a4.09,4.09,0,0,1-.78,2,4.45,4.45,0,0,1-6.52.25,5.19,5.19,0,0,1-1-3.35A5.32,5.32,0,0,1,130.82,30,4,4,0,0,1,134,28.74a4.72,4.72,0,0,1,2.79.76A3.55,3.55,0,0,1,138,32.2Z"/><path d="M144.56,25.77h2.56v10h6.11V38h-8.67Z"/><path d="M157.19,27.88h-2.4V25.69h2.4ZM154.79,29h2.4V38h-2.4Z"/><path d="M170.77,29a2.49,2.49,0,0,1,1,.81,2.57,2.57,0,0,1,.52,1.16,8.82,8.82,0,0,1,.08,1.34V38H170V32.24a2,2,0,0,0-.16-.85,1.19,1.19,0,0,0-1.17-.63,1.35,1.35,0,0,0-1.35.82,2.46,2.46,0,0,0-.19,1V38h-2.38V32.61a3.07,3.07,0,0,0-.17-1.17,1.17,1.17,0,0,0-1.17-.65,1.41,1.41,0,0,0-1.36.65,2.51,2.51,0,0,0-.19,1.12V38h-2.4V29h2.3v1.32a3.73,3.73,0,0,1,.83-1,2.8,2.8,0,0,1,1.78-.54,2.86,2.86,0,0,1,1.68.46,2.72,2.72,0,0,1,.78,1.09A3.08,3.08,0,0,1,168,29.13a3.53,3.53,0,0,1,1.63-.38A3.07,3.07,0,0,1,170.77,29Z"/><path d="M177,27.88h-2.4V25.69H177ZM174.63,29H177V38h-2.4Z"/><path d="M178.39,30.72V29h1.26V26.51H182V29h1.47v1.68H182V35.5a1.13,1.13,0,0,0,.14.7,1.64,1.64,0,0,0,.87.13h.46v1.76l-1.12.05a3,3,0,0,1-2.29-.58,1.78,1.78,0,0,1-.4-1.26V30.72Z"/><path d="M189,32.14h4.63v2.24H189Z"/><path d="M207.7,29.93a4.8,4.8,0,0,1,1.1,3.43A5.45,5.45,0,0,1,207.72,37a3.52,3.52,0,0,1-2.78,1.25,2.93,2.93,0,0,1-1.81-.54,3.55,3.55,0,0,1-.77-.87v4.71H200V29h2.27v1.34a3.79,3.79,0,0,1,.82-.93,3.05,3.05,0,0,1,1.89-.61A3.59,3.59,0,0,1,207.7,29.93Zm-1.82,1.7a1.67,1.67,0,0,0-1.56-.81A1.79,1.79,0,0,0,202.53,32a4.55,4.55,0,0,0-.25,1.65,2.57,2.57,0,0,0,.85,2.21,1.92,1.92,0,0,0,1.19.38,1.74,1.74,0,0,0,1.52-.77,4,4,0,0,0,0-3.88Z"/><path d="M216.37,29.14a3.65,3.65,0,0,1,1.56,1.34,4.41,4.41,0,0,1,.72,1.87,10.86,10.86,0,0,1,.08,1.79h-6.59a2.16,2.16,0,0,0,1,1.91,2.35,2.35,0,0,0,1.3.34,2.06,2.06,0,0,0,1.32-.41,2,2,0,0,0,.48-.63h2.42a3,3,0,0,1-.88,1.64,4.39,4.39,0,0,1-3.4,1.32,4.94,4.94,0,0,1-3.19-1.11,4.4,4.4,0,0,1-1.38-3.63A4.85,4.85,0,0,1,211,30a4.35,4.35,0,0,1,3.23-1.26A5,5,0,0,1,216.37,29.14Zm-3.54,2a2.53,2.53,0,0,0-.63,1.4h4.08a2,2,0,0,0-.63-1.43,2.12,2.12,0,0,0-1.41-.49A1.88,1.88,0,0,0,212.83,31.18Z"/><path d="M225,28.74h.21v2.43l-.4,0h-.28a2,2,0,0,0-1.92.93,3.65,3.65,0,0,0-.27,1.61V38H219.9V29h2.26v1.58a5.16,5.16,0,0,1,1-1.24,2.57,2.57,0,0,1,1.72-.55Z"/><path d="M237.83,29a2.58,2.58,0,0,1,1.06.81A2.67,2.67,0,0,1,239.4,31a7.67,7.67,0,0,1,.08,1.34V38H237V32.24a2,2,0,0,0-.16-.85,1.18,1.18,0,0,0-1.16-.63,1.36,1.36,0,0,0-1.36.82,2.63,2.63,0,0,0-.19,1V38h-2.38V32.61a3.07,3.07,0,0,0-.17-1.17,1.17,1.17,0,0,0-1.17-.65,1.41,1.41,0,0,0-1.36.65,2.51,2.51,0,0,0-.19,1.12V38h-2.4V29h2.3v1.32a3.73,3.73,0,0,1,.83-1,3.25,3.25,0,0,1,3.46-.08,2.54,2.54,0,0,1,.78,1.09A3,3,0,0,1,235,29.13a3.49,3.49,0,0,1,1.62-.38A3,3,0,0,1,237.83,29Z"/><path d="M245.24,32.5a4.16,4.16,0,0,0,.95-.21.71.71,0,0,0,.51-.67.8.8,0,0,0-.39-.77,2.54,2.54,0,0,0-1.15-.21,1.55,1.55,0,0,0-1.21.41,1.79,1.79,0,0,0-.33.83h-2.29a3.5,3.5,0,0,1,.67-1.95,3.92,3.92,0,0,1,3.24-1.19,5.68,5.68,0,0,1,2.65.59,2.26,2.26,0,0,1,1.16,2.22V35.7c0,.29,0,.64,0,1a1.46,1.46,0,0,0,.14.63.89.89,0,0,0,.35.27V38H247a2.88,2.88,0,0,1-.15-.51c0-.16-.05-.35-.07-.55a4.53,4.53,0,0,1-1.13.9,3.36,3.36,0,0,1-1.74.44,3,3,0,0,1-2-.7,2.48,2.48,0,0,1-.81-2,2.58,2.58,0,0,1,1.3-2.41,5.66,5.66,0,0,1,2.09-.58Zm1.45,1.1a2.47,2.47,0,0,1-.46.23,3.68,3.68,0,0,1-.64.16l-.53.1a3.45,3.45,0,0,0-1.09.33,1.08,1.08,0,0,0-.56,1,1.06,1.06,0,0,0,.34.88,1.31,1.31,0,0,0,.83.27,2.45,2.45,0,0,0,1.43-.45,1.91,1.91,0,0,0,.68-1.64Z"/><path d="M258.41,29.47a3,3,0,0,1,.89,2.44V38h-2.42V32.5a2.48,2.48,0,0,0-.2-1.1,1.33,1.33,0,0,0-1.31-.69,1.63,1.63,0,0,0-1.64,1,3.41,3.41,0,0,0-.23,1.37V38h-2.37V29h2.29v1.32a3.92,3.92,0,0,1,.86-1,3,3,0,0,1,1.84-.55A3.46,3.46,0,0,1,258.41,29.47Z"/><path d="M267.39,29.14A3.62,3.62,0,0,1,269,30.48a4.41,4.41,0,0,1,.72,1.87,12.1,12.1,0,0,1,.08,1.79h-6.59a2.15,2.15,0,0,0,.94,1.91,2.39,2.39,0,0,0,1.31.34,2,2,0,0,0,1.31-.41,1.89,1.89,0,0,0,.49-.63h2.41a2.91,2.91,0,0,1-.87,1.64,4.41,4.41,0,0,1-3.41,1.32,4.93,4.93,0,0,1-3.18-1.11,4.4,4.4,0,0,1-1.38-3.63A4.89,4.89,0,0,1,262,30a4.35,4.35,0,0,1,3.24-1.26A5,5,0,0,1,267.39,29.14Zm-3.53,2a2.47,2.47,0,0,0-.64,1.4h4.08a2,2,0,0,0-.63-1.43,2.09,2.09,0,0,0-1.4-.49A1.88,1.88,0,0,0,263.86,31.18Z"/><path d="M278.25,29.47a3,3,0,0,1,.89,2.44V38h-2.43V32.5a2.5,2.5,0,0,0-.19-1.1,1.33,1.33,0,0,0-1.31-.69,1.63,1.63,0,0,0-1.64,1,3.4,3.4,0,0,0-.24,1.37V38H271V29h2.29v1.32a3.92,3.92,0,0,1,.86-1,2.94,2.94,0,0,1,1.84-.55A3.48,3.48,0,0,1,278.25,29.47Z"/><path d="M280.41,30.72V29h1.26V26.51H284V29h1.47v1.68H284V35.5a1.13,1.13,0,0,0,.14.7,1.57,1.57,0,0,0,.86.13h.47v1.76l-1.12.05a3,3,0,0,1-2.29-.58,1.73,1.73,0,0,1-.4-1.26V30.72Z"/><path d="M296.52,29.1a2.85,2.85,0,0,1,1,1V25.78H300V38h-2.3V36.75a3.33,3.33,0,0,1-1.16,1.17,3.28,3.28,0,0,1-1.61.36A3.35,3.35,0,0,1,292.22,37a4.92,4.92,0,0,1-1.08-3.29,5.66,5.66,0,0,1,1.07-3.64,3.45,3.45,0,0,1,2.85-1.33A2.93,2.93,0,0,1,296.52,29.1Zm.58,6.44a3.26,3.26,0,0,0,.52-1.93,3,3,0,0,0-.83-2.37,1.82,1.82,0,0,0-1.2-.43,1.66,1.66,0,0,0-1.52.78,3.57,3.57,0,0,0-.49,1.95,3.68,3.68,0,0,0,.49,2,1.68,1.68,0,0,0,1.5.75A1.75,1.75,0,0,0,297.1,35.54Z"/><path d="M308,29.14a3.74,3.74,0,0,1,1.57,1.34,4.41,4.41,0,0,1,.72,1.87,11.08,11.08,0,0,1,.07,1.79h-6.59a2.18,2.18,0,0,0,1,1.91,2.39,2.39,0,0,0,1.31.34,2.05,2.05,0,0,0,1.31-.41,2.19,2.19,0,0,0,.49-.63h2.41a2.93,2.93,0,0,1-.88,1.64,4.39,4.39,0,0,1-3.4,1.32,5,5,0,0,1-3.19-1.11,4.4,4.4,0,0,1-1.38-3.63,4.89,4.89,0,0,1,1.25-3.6,4.35,4.35,0,0,1,3.23-1.26A5,5,0,0,1,308,29.14Zm-3.54,2a2.53,2.53,0,0,0-.63,1.4h4.08a2,2,0,0,0-.63-1.43,2.11,2.11,0,0,0-1.4-.49A1.92,1.92,0,0,0,304.46,31.18Z"/><path d="M315.3,25.65l.5,0v1.93c-.13,0-.35,0-.67,0a.69.69,0,0,0-.82.69V29h1.55v1.67h-1.55V38H312V30.71h-1.33V29h1.29v-.58a3,3,0,0,1,.5-2c.34-.55,1.16-.82,2.48-.82Z"/><path d="M324.77,36.9a5,5,0,0,1-7,0,5.64,5.64,0,0,1,0-6.8,4.92,4.92,0,0,1,7,0,5.64,5.64,0,0,1,0,6.8Zm-1.9-1.31a3.37,3.37,0,0,0,.56-2.1,3.33,3.33,0,0,0-.56-2.09,1.88,1.88,0,0,0-1.59-.74,1.91,1.91,0,0,0-1.6.74,3.4,3.4,0,0,0-.56,2.09,3.43,3.43,0,0,0,.56,2.1,1.91,1.91,0,0,0,1.6.74A1.88,1.88,0,0,0,322.87,35.59Z"/><path d="M332.63,28.74h.21v2.43l-.4,0h-.29a2,2,0,0,0-1.91.93,3.49,3.49,0,0,0-.28,1.61V38h-2.38V29h2.26v1.58a5.18,5.18,0,0,1,1-1.24,2.62,2.62,0,0,1,1.73-.55Z"/><path d="M345.51,29a2.49,2.49,0,0,1,1.05.81,2.57,2.57,0,0,1,.52,1.16,8.82,8.82,0,0,1,.08,1.34V38h-2.43V32.24a2,2,0,0,0-.16-.85,1.19,1.19,0,0,0-1.17-.63,1.35,1.35,0,0,0-1.35.82,2.46,2.46,0,0,0-.19,1V38h-2.38V32.61a3.07,3.07,0,0,0-.17-1.17,1.17,1.17,0,0,0-1.17-.65,1.41,1.41,0,0,0-1.36.65,2.51,2.51,0,0,0-.19,1.12V38h-2.4V29h2.3v1.32a3.73,3.73,0,0,1,.83-1,2.8,2.8,0,0,1,1.78-.54,2.86,2.86,0,0,1,1.68.46,2.72,2.72,0,0,1,.78,1.09,3,3,0,0,1,1.16-1.17,3.46,3.46,0,0,1,1.62-.38A3.07,3.07,0,0,1,345.51,29Z"/><path d="M352.92,32.5a4.3,4.3,0,0,0,.95-.21.71.71,0,0,0,.51-.67.81.81,0,0,0-.4-.77,2.48,2.48,0,0,0-1.15-.21,1.54,1.54,0,0,0-1.2.41,1.8,1.8,0,0,0-.34.83H349a3.5,3.5,0,0,1,.67-1.95,3.91,3.91,0,0,1,3.23-1.19,5.72,5.72,0,0,1,2.66.59,2.25,2.25,0,0,1,1.15,2.22V35.7c0,.29,0,.64,0,1a1.32,1.32,0,0,0,.14.63.89.89,0,0,0,.35.27V38h-2.57a2.23,2.23,0,0,1-.15-.51c0-.16-.05-.35-.07-.55a4.92,4.92,0,0,1-1.13.9,3.41,3.41,0,0,1-1.74.44,3,3,0,0,1-2-.7,2.48,2.48,0,0,1-.81-2,2.56,2.56,0,0,1,1.3-2.41,5.66,5.66,0,0,1,2.09-.58Zm1.45,1.1a2.82,2.82,0,0,1-.46.23,3.94,3.94,0,0,1-.64.16l-.54.1a3.46,3.46,0,0,0-1.08.33,1.23,1.23,0,0,0-.22,1.88,1.29,1.29,0,0,0,.83.27,2.47,2.47,0,0,0,1.43-.45,1.94,1.94,0,0,0,.68-1.64Z"/><path d="M357.86,30.72V29h1.26V26.51h2.34V29h1.47v1.68h-1.47V35.5a1,1,0,0,0,.15.7,1.57,1.57,0,0,0,.86.13h.46v1.76l-1.12.05a3,3,0,0,1-2.29-.58,1.78,1.78,0,0,1-.4-1.26V30.72Z"/><path d="M366.88,27.88h-2.39V25.69h2.39ZM364.49,29h2.39V38h-2.39Z"/><path d="M376.72,36.9a5,5,0,0,1-7,0,5.6,5.6,0,0,1,0-6.8,4.91,4.91,0,0,1,7,0,5.6,5.6,0,0,1,0,6.8Zm-1.89-1.31a3.43,3.43,0,0,0,.55-2.1,3.4,3.4,0,0,0-.55-2.09,2.09,2.09,0,0,0-3.19,0,3.33,3.33,0,0,0-.56,2.09,3.37,3.37,0,0,0,.56,2.1,2.09,2.09,0,0,0,3.19,0Z"/><path d="M386.86,29.47a3,3,0,0,1,.89,2.44V38h-2.43V32.5a2.5,2.5,0,0,0-.19-1.1,1.33,1.33,0,0,0-1.32-.69,1.64,1.64,0,0,0-1.64,1,3.59,3.59,0,0,0-.23,1.37V38h-2.36V29h2.29v1.32a3.92,3.92,0,0,1,.86-1,2.94,2.94,0,0,1,1.84-.55A3.49,3.49,0,0,1,386.86,29.47Z"/><path d="M251,205.77h2.56v10h6.11V218H251Z"/><path d="M263.66,207.88h-2.4v-2.19h2.4Zm-2.4,1.07h2.4V218h-2.4Z"/><path d="M277.24,209a2.66,2.66,0,0,1,1.57,2,8.82,8.82,0,0,1,.08,1.34l0,5.7h-2.42v-5.76a2,2,0,0,0-.17-.85,1.17,1.17,0,0,0-1.16-.63,1.37,1.37,0,0,0-1.35.82,2.51,2.51,0,0,0-.19,1V218h-2.39v-5.38a3.13,3.13,0,0,0-.16-1.18,1.17,1.17,0,0,0-1.17-.65,1.4,1.4,0,0,0-1.36.65,2.51,2.51,0,0,0-.19,1.12V218h-2.4v-9h2.3v1.32a3.73,3.73,0,0,1,.83-1,2.8,2.8,0,0,1,1.78-.54,2.88,2.88,0,0,1,1.68.46,2.72,2.72,0,0,1,.78,1.09,3,3,0,0,1,1.15-1.17,3.53,3.53,0,0,1,1.63-.38A3.07,3.07,0,0,1,277.24,209Z"/><path d="M283.5,207.88h-2.4v-2.19h2.4ZM281.1,209h2.4V218h-2.4Z"/><path d="M284.86,210.72V209h1.26v-2.53h2.34V209h1.47v1.68h-1.47v4.78a1.13,1.13,0,0,0,.14.7,1.59,1.59,0,0,0,.86.13h.47v1.76l-1.12,0a3,3,0,0,1-2.29-.59,1.69,1.69,0,0,1-.4-1.25v-5.57Z"/><path d="M303.72,216.89a5,5,0,0,1-7,0,5.63,5.63,0,0,1,0-6.79,4.93,4.93,0,0,1,7,0,5.63,5.63,0,0,1,0,6.79Zm-1.9-1.3a4.2,4.2,0,0,0,0-4.19,1.88,1.88,0,0,0-1.59-.74,1.91,1.91,0,0,0-1.6.74,4.2,4.2,0,0,0,0,4.19,1.91,1.91,0,0,0,1.6.74A1.88,1.88,0,0,0,301.82,215.59Z"/><path d="M310.3,205.65l.5,0v1.93c-.14,0-.36,0-.67,0a.76.76,0,0,0-.65.21.74.74,0,0,0-.18.48V209h1.56v1.67H309.3V218H307v-7.29h-1.32V209h1.29v-.58a3,3,0,0,1,.49-2c.34-.55,1.17-.82,2.48-.82Z"/><path d="M324.55,209.93a4.8,4.8,0,0,1,1.11,3.43,5.45,5.45,0,0,1-1.09,3.65,3.52,3.52,0,0,1-2.78,1.25,2.93,2.93,0,0,1-1.81-.54,3.55,3.55,0,0,1-.77-.87v4.71h-2.34V209h2.27v1.34a4,4,0,0,1,.82-.93,3.05,3.05,0,0,1,1.89-.61A3.56,3.56,0,0,1,324.55,209.93Zm-1.82,1.7a1.67,1.67,0,0,0-1.56-.81,1.79,1.79,0,0,0-1.79,1.22,4.55,4.55,0,0,0-.25,1.65,2.57,2.57,0,0,0,.85,2.21,1.92,1.92,0,0,0,1.19.38,1.74,1.74,0,0,0,1.52-.77,4,4,0,0,0,0-3.88Z"/><path d="M332.35,208.74h.2v2.43l-.39,0h-.29a2,2,0,0,0-1.91.93,3.49,3.49,0,0,0-.28,1.61V218H327.3V209h2.26v1.58a5.18,5.18,0,0,1,.95-1.24,2.62,2.62,0,0,1,1.73-.55Z"/><path d="M341.49,216.89a5,5,0,0,1-7,0,5.59,5.59,0,0,1,0-6.79,4.92,4.92,0,0,1,7,0,5.63,5.63,0,0,1,0,6.79Zm-1.9-1.3a4.2,4.2,0,0,0,0-4.19,1.88,1.88,0,0,0-1.59-.74,1.9,1.9,0,0,0-1.6.74,4.2,4.2,0,0,0,0,4.19,1.9,1.9,0,0,0,1.6.74A1.88,1.88,0,0,0,339.59,215.59Z"/><path d="M351.93,209.93a4.8,4.8,0,0,1,1.11,3.43A5.45,5.45,0,0,1,352,217a3.53,3.53,0,0,1-2.79,1.25,2.92,2.92,0,0,1-1.8-.54,3.55,3.55,0,0,1-.77-.87v4.71h-2.34V209h2.26v1.34a4,4,0,0,1,.82-.93,3.05,3.05,0,0,1,1.89-.61A3.54,3.54,0,0,1,351.93,209.93Zm-1.81,1.7a1.69,1.69,0,0,0-1.57-.81,1.78,1.78,0,0,0-1.78,1.22,4.55,4.55,0,0,0-.25,1.65,2.6,2.6,0,0,0,.84,2.21,1.94,1.94,0,0,0,1.19.38,1.74,1.74,0,0,0,1.53-.77,3.61,3.61,0,0,0,.52-2A3.52,3.52,0,0,0,350.12,211.63Z"/><path d="M362.25,216.89a5,5,0,0,1-6.95,0,5.59,5.59,0,0,1,0-6.79,4.91,4.91,0,0,1,6.95,0,5.59,5.59,0,0,1,0,6.79Zm-1.89-1.3a4.2,4.2,0,0,0,0-4.19,1.88,1.88,0,0,0-1.59-.74,1.9,1.9,0,0,0-1.6.74,4.2,4.2,0,0,0,0,4.19,1.9,1.9,0,0,0,1.6.74A1.88,1.88,0,0,0,360.36,215.59Z"/><path d="M370.12,208.74h.2v2.43l-.4,0h-.28a2,2,0,0,0-1.92.93,3.65,3.65,0,0,0-.27,1.61V218h-2.38V209h2.26v1.58a5.18,5.18,0,0,1,.95-1.24,2.6,2.6,0,0,1,1.73-.55Z"/><path d="M370.78,210.72V209H372v-2.53h2.34V209h1.47v1.68h-1.47v4.78a1.13,1.13,0,0,0,.14.7,1.62,1.62,0,0,0,.87.13h.46v1.76l-1.12,0a3,3,0,0,1-2.29-.59,1.69,1.69,0,0,1-.4-1.25v-5.57Z"/><path d="M379.8,207.88h-2.4v-2.19h2.4ZM377.4,209h2.4V218h-2.4Z"/><path d="M389.64,216.89a5,5,0,0,1-7,0,5.63,5.63,0,0,1,0-6.79,4.92,4.92,0,0,1,7,0,5.63,5.63,0,0,1,0,6.79Zm-1.89-1.3a4.27,4.27,0,0,0,0-4.19,2.1,2.1,0,0,0-3.2,0,4.2,4.2,0,0,0,0,4.19,2.1,2.1,0,0,0,3.2,0Z"/><path d="M399.77,209.47a3,3,0,0,1,.89,2.44V218h-2.42v-5.5a2.65,2.65,0,0,0-.19-1.1,1.33,1.33,0,0,0-1.32-.69,1.63,1.63,0,0,0-1.64,1,3.56,3.56,0,0,0-.23,1.37V218h-2.37v-9h2.3v1.32a3.91,3.91,0,0,1,.85-1,3,3,0,0,1,1.85-.55A3.45,3.45,0,0,1,399.77,209.47Z"/><path d="M406.45,212.5a4,4,0,0,0,.94-.21.71.71,0,0,0,.51-.67.8.8,0,0,0-.39-.77,2.48,2.48,0,0,0-1.15-.21,1.51,1.51,0,0,0-1.2.41,1.8,1.8,0,0,0-.34.83h-2.28a3.43,3.43,0,0,1,.67-1.95,3.88,3.88,0,0,1,3.23-1.19,5.68,5.68,0,0,1,2.65.59,2.26,2.26,0,0,1,1.16,2.22v4.15c0,.29,0,.64,0,1.05a1.21,1.21,0,0,0,.14.63.76.76,0,0,0,.35.27V218h-2.58a2.88,2.88,0,0,1-.15-.51c0-.16,0-.35-.06-.55a4.77,4.77,0,0,1-1.14.9,3.36,3.36,0,0,1-1.74.44,3,3,0,0,1-2-.7,2.5,2.5,0,0,1-.8-2,2.57,2.57,0,0,1,1.29-2.41,5.72,5.72,0,0,1,2.09-.58Zm1.44,1.1a2.2,2.2,0,0,1-.46.23,3.54,3.54,0,0,1-.63.16l-.54.1a3.45,3.45,0,0,0-1.09.33,1.08,1.08,0,0,0-.56,1,1.06,1.06,0,0,0,.35.88,1.27,1.27,0,0,0,.83.27,2.44,2.44,0,0,0,1.42-.45,1.88,1.88,0,0,0,.68-1.64Z"/><path d="M414.73,218h-2.36V205.77h2.36Z"/><path d="M419.47,207.88h-2.4v-2.19h2.4Zm-2.4,1.07h2.4V218h-2.4Z"/><path d="M420.83,210.72V209h1.26v-2.53h2.35V209h1.46v1.68h-1.46v4.78c0,.37,0,.61.14.7a1.57,1.57,0,0,0,.86.13h.46v1.76l-1.12,0a3,3,0,0,1-2.29-.59,1.74,1.74,0,0,1-.4-1.25v-5.57Z"/><path d="M427.78,219.74h.3a3.59,3.59,0,0,0,.66,0,1.19,1.19,0,0,0,.53-.19,2,2,0,0,0,.54-1.14L426.49,209h2.63l2,6.68L433,209h2.52l-3.1,8.9A12.75,12.75,0,0,1,431,221a2.68,2.68,0,0,1-2.1.62h-.51l-.57,0Z"/><path d="M254.53,243.77h2.89L261.75,256H259l-.81-2.51h-4.5l-.83,2.51h-2.68Zm-.17,7.61h3.14L256,246.56Z"/><path d="M268.14,246.74h.21v2.43l-.4,0h-.28a2,2,0,0,0-1.92.93,3.63,3.63,0,0,0-.28,1.61V256h-2.38V247h2.26v1.58a5.45,5.45,0,0,1,.95-1.24,2.62,2.62,0,0,1,1.73-.55Z"/><path d="M275.63,247.14a3.65,3.65,0,0,1,1.56,1.34,4.41,4.41,0,0,1,.72,1.87,10.86,10.86,0,0,1,.08,1.79H271.4a2.16,2.16,0,0,0,1,1.91,2.35,2.35,0,0,0,1.3.34A2.06,2.06,0,0,0,275,254a2,2,0,0,0,.48-.63h2.42A3,3,0,0,1,277,255a4.39,4.39,0,0,1-3.4,1.32,4.94,4.94,0,0,1-3.19-1.11,4.4,4.4,0,0,1-1.38-3.63,4.89,4.89,0,0,1,1.25-3.6,4.35,4.35,0,0,1,3.23-1.26A5.19,5.19,0,0,1,275.63,247.14Zm-3.54,2a2.53,2.53,0,0,0-.63,1.4h4.08a2,2,0,0,0-.63-1.43,2.12,2.12,0,0,0-1.41-.49A1.88,1.88,0,0,0,272.09,249.18Z"/><path d="M282.77,250.5a4.16,4.16,0,0,0,1-.21.71.71,0,0,0,.51-.67.8.8,0,0,0-.39-.77,2.54,2.54,0,0,0-1.15-.21,1.55,1.55,0,0,0-1.21.41,1.79,1.79,0,0,0-.33.83h-2.29a3.5,3.5,0,0,1,.67-1.95,3.92,3.92,0,0,1,3.24-1.19,5.71,5.71,0,0,1,2.65.59,2.26,2.26,0,0,1,1.16,2.22v4.15c0,.29,0,.64,0,1.05a1.46,1.46,0,0,0,.14.63.89.89,0,0,0,.35.27V256h-2.57a2.88,2.88,0,0,1-.15-.51c0-.16-.05-.35-.07-.55a4.72,4.72,0,0,1-1.13.9,3.36,3.36,0,0,1-1.74.44,3,3,0,0,1-2-.7,2.48,2.48,0,0,1-.81-2,2.58,2.58,0,0,1,1.3-2.41,5.66,5.66,0,0,1,2.09-.58Zm1.45,1.1a2.47,2.47,0,0,1-.46.23,3.68,3.68,0,0,1-.64.16l-.53.1a3.45,3.45,0,0,0-1.09.33,1.23,1.23,0,0,0-.22,1.88,1.31,1.31,0,0,0,.83.27,2.47,2.47,0,0,0,1.43-.45,1.94,1.94,0,0,0,.68-1.64Z"/><path d="M295.72,247v5.46a2.9,2.9,0,0,0,.18,1.16,1.27,1.27,0,0,0,1.27.69,1.66,1.66,0,0,0,1.65-1,3.61,3.61,0,0,0,.23-1.4V247h2.4V256h-2.3v-1.28s-.08.11-.16.25a1.89,1.89,0,0,1-.32.37,3.33,3.33,0,0,1-1.07.68,3.71,3.71,0,0,1-1.21.18,2.7,2.7,0,0,1-2.7-1.44,5.54,5.54,0,0,1-.39-2.35V247Z"/><path d="M311.05,247.47a3,3,0,0,1,.88,2.44V256h-2.42v-5.5a2.5,2.5,0,0,0-.19-1.1,1.33,1.33,0,0,0-1.32-.69,1.64,1.64,0,0,0-1.64,1,3.56,3.56,0,0,0-.23,1.37V256h-2.36v-9h2.29v1.32a3.92,3.92,0,0,1,.86-1,2.94,2.94,0,0,1,1.84-.55A3.49,3.49,0,0,1,311.05,247.47Z"/><path d="M318.93,247.1a2.85,2.85,0,0,1,1,1v-4.32h2.4V256h-2.3v-1.25a3.33,3.33,0,0,1-5.43.25,4.87,4.87,0,0,1-1.09-3.29,5.66,5.66,0,0,1,1.07-3.64,3.45,3.45,0,0,1,2.85-1.33A2.9,2.9,0,0,1,318.93,247.1Zm.58,6.44a3.26,3.26,0,0,0,.53-1.93,2.94,2.94,0,0,0-.84-2.37,1.81,1.81,0,0,0-1.2-.44,1.66,1.66,0,0,0-1.52.79,3.66,3.66,0,0,0-.49,1.95,3.59,3.59,0,0,0,.5,2,1.68,1.68,0,0,0,1.5.75A1.73,1.73,0,0,0,319.51,253.54Z"/><path d="M330.41,247.14a3.68,3.68,0,0,1,1.57,1.34,4.41,4.41,0,0,1,.72,1.87,12.1,12.1,0,0,1,.08,1.79h-6.59a2.15,2.15,0,0,0,.94,1.91,2.39,2.39,0,0,0,1.31.34,2,2,0,0,0,1.31-.41,1.89,1.89,0,0,0,.49-.63h2.41a2.91,2.91,0,0,1-.87,1.64,4.41,4.41,0,0,1-3.41,1.32,4.93,4.93,0,0,1-3.18-1.11,4.38,4.38,0,0,1-1.39-3.63,4.89,4.89,0,0,1,1.25-3.6,4.35,4.35,0,0,1,3.24-1.26A5.18,5.18,0,0,1,330.41,247.14Zm-3.53,2a2.4,2.4,0,0,0-.63,1.4h4.07a2,2,0,0,0-.63-1.43,2.09,2.09,0,0,0-1.4-.49A1.88,1.88,0,0,0,326.88,249.18Z"/><path d="M339,246.74h.2v2.43l-.4,0h-.28a2,2,0,0,0-1.92.93,3.65,3.65,0,0,0-.27,1.61V256H334V247h2.26v1.58a5.18,5.18,0,0,1,1-1.24,2.6,2.6,0,0,1,1.73-.55Z"/><path d="M349.79,247a2.79,2.79,0,0,1,1.39,1.31V247h2.31v8.59a4.85,4.85,0,0,1-.59,2.64c-.68,1-2,1.52-3.89,1.52a5.25,5.25,0,0,1-2.83-.68,2.51,2.51,0,0,1-1.21-2h2.57a1.08,1.08,0,0,0,.33.6,2,2,0,0,0,1.29.32,1.73,1.73,0,0,0,1.71-.85,4.5,4.5,0,0,0,.28-1.85v-.58a2.84,2.84,0,0,1-.73.87,3,3,0,0,1-1.84.54,3.47,3.47,0,0,1-2.78-1.22,4.93,4.93,0,0,1-1-3.32,5.6,5.6,0,0,1,1-3.39,3.33,3.33,0,0,1,2.84-1.37A3.09,3.09,0,0,1,349.79,247Zm.8,6.48a2.88,2.88,0,0,0,.57-2,3.07,3.07,0,0,0-.54-2,1.76,1.76,0,0,0-1.45-.68,1.73,1.73,0,0,0-1.71,1.18,4,4,0,0,0-.25,1.53,3.43,3.43,0,0,0,.27,1.4,1.72,1.72,0,0,0,1.72,1.15A1.8,1.8,0,0,0,350.59,253.43Z"/><path d="M360.72,246.74h.21v2.43l-.4,0h-.28a2,2,0,0,0-1.92.93,3.49,3.49,0,0,0-.28,1.61V256h-2.38V247h2.26v1.58a5.18,5.18,0,0,1,.95-1.24,2.62,2.62,0,0,1,1.73-.55Z"/><path d="M365.9,250.5a4,4,0,0,0,.94-.21.71.71,0,0,0,.51-.67.8.8,0,0,0-.39-.77,2.48,2.48,0,0,0-1.15-.21,1.51,1.51,0,0,0-1.2.41,1.8,1.8,0,0,0-.34.83H362a3.43,3.43,0,0,1,.67-1.95,3.88,3.88,0,0,1,3.23-1.19,5.68,5.68,0,0,1,2.65.59,2.26,2.26,0,0,1,1.16,2.22v4.15c0,.29,0,.64,0,1.05a1.21,1.21,0,0,0,.14.63.82.82,0,0,0,.35.27V256h-2.58a2.88,2.88,0,0,1-.15-.51c0-.16-.05-.35-.06-.55a4.77,4.77,0,0,1-1.14.9,3.36,3.36,0,0,1-1.74.44,3,3,0,0,1-2-.7,2.5,2.5,0,0,1-.8-2,2.57,2.57,0,0,1,1.29-2.41,5.72,5.72,0,0,1,2.09-.58Zm1.44,1.1a2.2,2.2,0,0,1-.46.23,3.54,3.54,0,0,1-.63.16l-.54.1a3.54,3.54,0,0,0-1.09.33,1.23,1.23,0,0,0-.22,1.88,1.31,1.31,0,0,0,.83.27,2.45,2.45,0,0,0,1.43-.45,1.88,1.88,0,0,0,.68-1.64Z"/><path d="M379.38,247.93a4.84,4.84,0,0,1,1.1,3.43A5.45,5.45,0,0,1,379.4,255a3.53,3.53,0,0,1-2.79,1.25,2.92,2.92,0,0,1-1.8-.54,3.55,3.55,0,0,1-.77-.87v4.71H371.7V247H374v1.34a3.79,3.79,0,0,1,.82-.93,3,3,0,0,1,1.88-.61A3.56,3.56,0,0,1,379.38,247.93Zm-1.82,1.7a1.67,1.67,0,0,0-1.56-.81,1.78,1.78,0,0,0-1.79,1.22,4.55,4.55,0,0,0-.25,1.65,2.6,2.6,0,0,0,.84,2.21,2,2,0,0,0,1.2.38,1.74,1.74,0,0,0,1.52-.77,4,4,0,0,0,0-3.88Z"/><path d="M388.65,247a2.65,2.65,0,0,1,1.12.89,2.44,2.44,0,0,1,.46,1.05,13.8,13.8,0,0,1,.08,1.74V256h-2.42v-5.51a2.5,2.5,0,0,0-.24-1.18,1.24,1.24,0,0,0-1.22-.63,1.66,1.66,0,0,0-1.41.63,2.83,2.83,0,0,0-.49,1.79V256h-2.36V243.81h2.36v4.31a3,3,0,0,1,1.19-1.1,3.46,3.46,0,0,1,1.42-.31A3.87,3.87,0,0,1,388.65,247Z"/><path d="M405.75,248.47v2.19h-9v-2.19Zm0,3.88v2.18h-9v-2.18Z"/><path d="M416.18,247h2.39l1.38,6.52,1.41-6.52h2.47L421.21,256h-2.44l-1.42-6.59L415.92,256h-2.46L410.92,247h2.54l1.41,6.5Z"/><path d="M432.68,254.89a5,5,0,0,1-7,0,5.63,5.63,0,0,1,0-6.79,4.92,4.92,0,0,1,7,0,5.63,5.63,0,0,1,0,6.79Zm-1.89-1.3a4.27,4.27,0,0,0,0-4.19,2.1,2.1,0,0,0-3.2,0,4.2,4.2,0,0,0,0,4.19,2.1,2.1,0,0,0,3.2,0Z"/><path d="M440.54,246.74h.21v2.43l-.4,0h-.29a2,2,0,0,0-1.91.93,3.49,3.49,0,0,0-.28,1.61V256h-2.38V247h2.26v1.58a5.18,5.18,0,0,1,.95-1.24,2.62,2.62,0,0,1,1.73-.55Z"/><path d="M442.11,243.81h2.32v6.6l3-3.41h2.94l-3.25,3.37,3.37,5.63H447.6l-2.19-3.86-1,1V256h-2.32Z"/><path d="M461.11,247.1a2.92,2.92,0,0,1,1,1v-4.32h2.39V256h-2.29v-1.25a3.33,3.33,0,0,1-1.16,1.17,3.28,3.28,0,0,1-1.61.36,3.34,3.34,0,0,1-2.67-1.28,4.92,4.92,0,0,1-1.08-3.29,5.6,5.6,0,0,1,1.07-3.64,3.45,3.45,0,0,1,2.85-1.33A3,3,0,0,1,461.11,247.1Zm.58,6.44a3.26,3.26,0,0,0,.52-1.93,2.94,2.94,0,0,0-.84-2.37,1.79,1.79,0,0,0-1.19-.44,1.66,1.66,0,0,0-1.52.79,4.22,4.22,0,0,0,0,3.95,1.68,1.68,0,0,0,1.5.75A1.75,1.75,0,0,0,461.69,253.54Z"/><path d="M474.24,254.89a5,5,0,0,1-7,0,5.63,5.63,0,0,1,0-6.79,4.92,4.92,0,0,1,7,0,5.63,5.63,0,0,1,0,6.79Zm-1.89-1.3a4.27,4.27,0,0,0,0-4.19,1.9,1.9,0,0,0-1.6-.74,1.88,1.88,0,0,0-1.59.74,4.14,4.14,0,0,0,0,4.19,1.88,1.88,0,0,0,1.59.74A1.9,1.9,0,0,0,472.35,253.59Z"/><path d="M484.38,247.47a3,3,0,0,1,.88,2.44V256h-2.42v-5.5a2.5,2.5,0,0,0-.19-1.1,1.33,1.33,0,0,0-1.32-.69,1.64,1.64,0,0,0-1.64,1,3.56,3.56,0,0,0-.23,1.37V256H477.1v-9h2.29v1.32a3.92,3.92,0,0,1,.86-1,2.94,2.94,0,0,1,1.84-.55A3.49,3.49,0,0,1,484.38,247.47Z"/><path d="M493.36,247.14a3.65,3.65,0,0,1,1.56,1.34,4.41,4.41,0,0,1,.72,1.87,10.86,10.86,0,0,1,.08,1.79h-6.59a2.16,2.16,0,0,0,.95,1.91,2.35,2.35,0,0,0,1.3.34,2.06,2.06,0,0,0,1.32-.41,2,2,0,0,0,.48-.63h2.42a3,3,0,0,1-.88,1.64,4.39,4.39,0,0,1-3.4,1.32,4.94,4.94,0,0,1-3.19-1.11,4.4,4.4,0,0,1-1.38-3.63A4.89,4.89,0,0,1,488,248a4.35,4.35,0,0,1,3.23-1.26A5.19,5.19,0,0,1,493.36,247.14Zm-3.54,2a2.53,2.53,0,0,0-.63,1.4h4.08a2,2,0,0,0-.63-1.43,2.12,2.12,0,0,0-1.41-.49A1.88,1.88,0,0,0,489.82,249.18Z"/><path d="M8.81,31.71H26.26V36H13.89v5.63H24.73v4.25H13.89V56.15H8.81Z"/><path class="a" d="M407,303c9.5-.5,16.5,2.5,16.5,8.5s-8,8-16,8"/><path class="a" d="M440.5,319.45C431,320,424,317,424,311s8-8,16-8"/></svg>