<svg id="b63a01a0-9ed8-40f9-aec9-050c9dfd1cbc" data-name="Layer 1" xmlns="http://www.w3.org/2000/svg" viewBox="0 0 500 500"><defs><style>.ab93f326-c867-4aee-883c-6b6d94f82d5d,.fb858de4-5f9b-4122-895d-1cf8b7322a0f{fill:none;}.fb858de4-5f9b-4122-895d-1cf8b7322a0f{stroke:#000;}.ab93f326-c867-4aee-883c-6b6d94f82d5d,.b3871940-e9ac-4981-b04b-d841f61d972a,.fb858de4-5f9b-4122-895d-1cf8b7322a0f{stroke-miterlimit:10;stroke-width:3px;}.b3871940-e9ac-4981-b04b-d841f61d972a,.bd26afc7-253f-413a-b89c-27ecb15b98bd{fill:#9e005d;}.b3871940-e9ac-4981-b04b-d841f61d972a{stroke:#9e005d;}.ab93f326-c867-4aee-883c-6b6d94f82d5d{stroke:#009245;}.e630ad25-e5f9-4251-b881-638285cc2154{fill:#009245;}</style></defs><title>Untitled-3</title><line class="fb858de4-5f9b-4122-895d-1cf8b7322a0f" x1="53.49" y1="58.64" x2="53.49" y2="452.77"/><line class="fb858de4-5f9b-4122-895d-1cf8b7322a0f" x1="19.48" y1="414.13" x2="460.76" y2="414.13"/><line class="b3871940-e9ac-4981-b04b-d841f61d972a" x1="135.51" y1="129.82" x2="53.49" y2="414.13"/><path class="ab93f326-c867-4aee-883c-6b6d94f82d5d" d="M53.49,414.13,173.56,229.46c1.35-2.07,3.4-3.51,5.05-5.36,24.8-27.9,56.63-41.53,71.39-48,17.51-7.67,121.81-36.41,145-31"/><path class="bd26afc7-253f-413a-b89c-27ecb15b98bd" d="M122.61,98.59a4,4,0,0,1,.73,2.42,3.53,3.53,0,0,1-.73,2.33,3.85,3.85,0,0,1-1.21.9,3.49,3.49,0,0,1,1.83,1.4,4.18,4.18,0,0,1,.62,2.32,4.63,4.63,0,0,1-.71,2.52,4.47,4.47,0,0,1-1.12,1.25,4.42,4.42,0,0,1-1.79.79,10.51,10.51,0,0,1-2.24.22h-7.13V96.9h7.65C120.44,96.93,121.81,97.49,122.61,98.59ZM114,99.65v3.49h3.85a3.2,3.2,0,0,0,1.67-.39,1.48,1.48,0,0,0,.64-1.39,1.41,1.41,0,0,0-.85-1.46,5.79,5.79,0,0,0-1.87-.25Zm0,6.11V110h3.84a3.79,3.79,0,0,0,1.6-.28,2,2,0,0,0,1-2,1.71,1.71,0,0,0-1-1.7,4.14,4.14,0,0,0-1.59-.27Z"/><path class="bd26afc7-253f-413a-b89c-27ecb15b98bd" d="M133,100.75l.26,0v3.14c-.19,0-.36,0-.51,0h-.37a2.53,2.53,0,0,0-2.48,1.21,4.61,4.61,0,0,0-.35,2.08v5.6h-3.09V101h2.92v2a6.54,6.54,0,0,1,1.24-1.6,3.36,3.36,0,0,1,2.23-.72Z"/><path class="bd26afc7-253f-413a-b89c-27ecb15b98bd" d="M138.15,99.63h-3.1V96.81h3.1Zm-3.1,1.4h3.1v11.71h-3.1Z"/><path class="bd26afc7-253f-413a-b89c-27ecb15b98bd" d="M139.92,103.32v-2.19h1.63V97.87h3v3.26h1.9v2.19h-1.9v6.18a1.42,1.42,0,0,0,.18.9,2,2,0,0,0,1.12.18h.6v2.28l-1.45.06a3.91,3.91,0,0,1-3-.75,2.29,2.29,0,0,1-.51-1.63v-7.2Z"/><path class="bd26afc7-253f-413a-b89c-27ecb15b98bd" d="M147.24,103.32v-2.19h1.64V97.87h3v3.26h1.91v2.19H151.9v6.18c0,.48.06.78.19.9a2,2,0,0,0,1.11.18h.61v2.28l-1.45.06a3.91,3.91,0,0,1-3-.75,2.29,2.29,0,0,1-.51-1.63v-7.2Z"/><path class="bd26afc7-253f-413a-b89c-27ecb15b98bd" d="M158.9,112.74h-3.06V96.9h3.06Z"/><path class="bd26afc7-253f-413a-b89c-27ecb15b98bd" d="M169.51,101.26a4.85,4.85,0,0,1,2,1.74,5.67,5.67,0,0,1,.93,2.42,14.65,14.65,0,0,1,.1,2.32H164a2.8,2.8,0,0,0,1.23,2.47,3,3,0,0,0,1.69.44,2.66,2.66,0,0,0,1.7-.53,3,3,0,0,0,.63-.81h3.12a3.86,3.86,0,0,1-1.13,2.12,5.73,5.73,0,0,1-4.41,1.7,6.37,6.37,0,0,1-4.12-1.44Q161,110.25,161,107a6.36,6.36,0,0,1,1.61-4.67,5.66,5.66,0,0,1,4.19-1.62A6.71,6.71,0,0,1,169.51,101.26Zm-4.58,2.65a3.2,3.2,0,0,0-.81,1.81h5.27a2.56,2.56,0,0,0-.81-1.85,2.7,2.7,0,0,0-1.82-.63A2.44,2.44,0,0,0,164.93,103.91Z"/><path class="e630ad25-e5f9-4251-b881-638285cc2154" d="M297.18,83a5.3,5.3,0,0,1,2.7,2A7.07,7.07,0,0,1,301,87.52a12.25,12.25,0,0,1,.3,2.62A10.49,10.49,0,0,1,300,95.49a5.73,5.73,0,0,1-5.31,3H287.9V82.61h6.83A8.35,8.35,0,0,1,297.18,83Zm-6.06,2.41V95.69h3.05a3.3,3.3,0,0,0,3.27-2.31,8.05,8.05,0,0,0,.51-3,7.5,7.5,0,0,0-.76-3.71c-.51-.86-1.51-1.29-3-1.29Z"/><path class="e630ad25-e5f9-4251-b881-638285cc2154" d="M306.59,86.73v7.06a3.59,3.59,0,0,0,.24,1.5,1.63,1.63,0,0,0,1.64.9,2.13,2.13,0,0,0,2.13-1.27,4.64,4.64,0,0,0,.3-1.82V86.73H314V98.44h-3V96.79a2.82,2.82,0,0,0-.21.32,2.07,2.07,0,0,1-.41.47,4.11,4.11,0,0,1-1.39.88,4.63,4.63,0,0,1-1.57.24A3.5,3.5,0,0,1,304,96.83a7.27,7.27,0,0,1-.5-3V86.73Z"/><path class="e630ad25-e5f9-4251-b881-638285cc2154" d="M324,90.93a2.74,2.74,0,0,0-.45-1.18,1.84,1.84,0,0,0-1.6-.71,2.11,2.11,0,0,0-2.12,1.54,6.37,6.37,0,0,0-.3,2.16,5.89,5.89,0,0,0,.3,2.07,2,2,0,0,0,2.07,1.46,1.84,1.84,0,0,0,1.53-.58,2.84,2.84,0,0,0,.54-1.5h3.13a5.11,5.11,0,0,1-1,2.64,4.91,4.91,0,0,1-4.27,2,5,5,0,0,1-4.16-1.68,6.73,6.73,0,0,1-1.33-4.34,6.88,6.88,0,0,1,1.47-4.69,5.12,5.12,0,0,1,4.06-1.68,6.11,6.11,0,0,1,3.61,1,4.57,4.57,0,0,1,1.66,3.49Z"/><path class="e630ad25-e5f9-4251-b881-638285cc2154" d="M328,89V86.84h1.64V83.57h3v3.27h1.9V89h-1.9v6.19a1.42,1.42,0,0,0,.18.9,2.11,2.11,0,0,0,1.12.17h.29l.31,0v2.29l-1.45,0a3.91,3.91,0,0,1-3-.75,2.25,2.25,0,0,1-.51-1.62V89Z"/><path class="e630ad25-e5f9-4251-b881-638285cc2154" d="M339.69,85.34h-3.1V82.51h3.1Zm-3.1,1.39h3.1V98.44h-3.1Z"/><path class="e630ad25-e5f9-4251-b881-638285cc2154" d="M345.78,98.44h-3.06V82.61h3.06Z"/><path class="e630ad25-e5f9-4251-b881-638285cc2154" d="M356.4,87a4.74,4.74,0,0,1,2,1.73,5.87,5.87,0,0,1,.94,2.42,16.12,16.12,0,0,1,.1,2.33h-8.53a2.82,2.82,0,0,0,1.22,2.47,3.15,3.15,0,0,0,1.69.44,2.59,2.59,0,0,0,1.7-.54,2.49,2.49,0,0,0,.63-.8h3.13a3.89,3.89,0,0,1-1.14,2.11,5.69,5.69,0,0,1-4.4,1.71,6.39,6.39,0,0,1-4.13-1.44q-1.78-1.44-1.79-4.69A6.34,6.34,0,0,1,349.46,88a5.64,5.64,0,0,1,4.19-1.62A6.62,6.62,0,0,1,356.4,87Zm-4.58,2.64a3.24,3.24,0,0,0-.82,1.82h5.28a2.55,2.55,0,0,0-.82-1.85,2.68,2.68,0,0,0-1.81-.63A2.44,2.44,0,0,0,351.82,89.61Z"/><path class="e630ad25-e5f9-4251-b881-638285cc2154" d="M370.62,82.12h2.55L367,98.44h-2.52Z"/><path class="e630ad25-e5f9-4251-b881-638285cc2154" d="M390.22,91.59a6.06,6.06,0,0,1-4,1.16H383v5.69h-3.29V82.61h6.8a5.51,5.51,0,0,1,3.75,1.22,4.79,4.79,0,0,1,1.4,3.79C391.61,89.49,391.15,90.81,390.22,91.59Zm-2.53-5.71a2.66,2.66,0,0,0-1.76-.52h-3V90h3a2.52,2.52,0,0,0,1.76-.57,2.32,2.32,0,0,0,.63-1.8A2.2,2.2,0,0,0,387.69,85.88Z"/><path class="e630ad25-e5f9-4251-b881-638285cc2154" d="M397.14,98.44h-3.06V82.61h3.06Z"/><path class="e630ad25-e5f9-4251-b881-638285cc2154" d="M404.76,91.32a4.77,4.77,0,0,0,1.23-.27.91.91,0,0,0,.66-.87,1,1,0,0,0-.51-1,3.09,3.09,0,0,0-1.48-.28,1.94,1.94,0,0,0-1.56.54,2.18,2.18,0,0,0-.44,1.07h-3a4.45,4.45,0,0,1,.86-2.52c.81-1,2.21-1.55,4.19-1.55a7.47,7.47,0,0,1,3.43.77,2.92,2.92,0,0,1,1.5,2.88v5.37c0,.37,0,.82,0,1.35a1.74,1.74,0,0,0,.18.82,1.09,1.09,0,0,0,.45.35v.45H407a4,4,0,0,1-.19-.66,6.52,6.52,0,0,1-.09-.71,6,6,0,0,1-1.47,1.17,4.42,4.42,0,0,1-2.24.57,3.88,3.88,0,0,1-2.64-.91,3.22,3.22,0,0,1-1.05-2.57A3.34,3.34,0,0,1,401,92.2a7.45,7.45,0,0,1,2.7-.75Zm1.88,1.43a3.29,3.29,0,0,1-.6.29,4.17,4.17,0,0,1-.82.21l-.7.13a4.8,4.8,0,0,0-1.4.42,1.39,1.39,0,0,0-.73,1.3,1.34,1.34,0,0,0,.45,1.13,1.62,1.62,0,0,0,1.07.35,3.17,3.17,0,0,0,1.85-.58,2.45,2.45,0,0,0,.88-2.11Z"/><path class="e630ad25-e5f9-4251-b881-638285cc2154" d="M414.74,94.7a2,2,0,0,0,.42,1.16,2.83,2.83,0,0,0,2.11.62,3.18,3.18,0,0,0,1.44-.27.86.86,0,0,0,.54-.81.88.88,0,0,0-.43-.78,17.78,17.78,0,0,0-3.2-.93,6.74,6.74,0,0,1-2.82-1.23,2.7,2.7,0,0,1-.81-2.11,3.62,3.62,0,0,1,1.27-2.78,5.12,5.12,0,0,1,3.59-1.17,6.53,6.53,0,0,1,3.58.88,3.76,3.76,0,0,1,1.59,3H419a1.81,1.81,0,0,0-.34-.94,2.1,2.1,0,0,0-1.72-.62,2.57,2.57,0,0,0-1.43.31.9.9,0,0,0-.42.73.81.81,0,0,0,.45.77,21.26,21.26,0,0,0,3.2.85,5.79,5.79,0,0,1,2.74,1.29,3,3,0,0,1,.9,2.21,3.55,3.55,0,0,1-1.3,2.84,6.1,6.1,0,0,1-4,1.1A6,6,0,0,1,413,97.67a3.77,3.77,0,0,1-1.32-3Z"/><path class="e630ad25-e5f9-4251-b881-638285cc2154" d="M423.39,89V86.84H425V83.57h3v3.27H430V89h-1.9v6.19a1.42,1.42,0,0,0,.18.9,2.11,2.11,0,0,0,1.12.17h.29l.31,0v2.29l-1.45,0a3.91,3.91,0,0,1-3-.75,2.25,2.25,0,0,1-.51-1.62V89Z"/><path class="e630ad25-e5f9-4251-b881-638285cc2154" d="M435.07,85.34H432V82.51h3.1ZM432,86.73h3.1V98.44H432Z"/><path class="e630ad25-e5f9-4251-b881-638285cc2154" d="M445,90.93a2.86,2.86,0,0,0-.44-1.18A1.87,1.87,0,0,0,443,89a2.11,2.11,0,0,0-2.12,1.54,6.37,6.37,0,0,0-.3,2.16,5.89,5.89,0,0,0,.3,2.07,2,2,0,0,0,2.07,1.46,1.81,1.81,0,0,0,1.53-.58,2.93,2.93,0,0,0,.55-1.5h3.12a5,5,0,0,1-1,2.64,4.9,4.9,0,0,1-4.26,2,5,5,0,0,1-4.17-1.68,6.73,6.73,0,0,1-1.33-4.34,6.88,6.88,0,0,1,1.47-4.69,5.14,5.14,0,0,1,4.07-1.68,6.13,6.13,0,0,1,3.61,1,4.64,4.64,0,0,1,1.66,3.49Z"/><path class="e630ad25-e5f9-4251-b881-638285cc2154" d="M297.18,109.35a5.3,5.3,0,0,1,2.7,2,7.07,7.07,0,0,1,1.13,2.56,12.25,12.25,0,0,1,.3,2.62,10.49,10.49,0,0,1-1.27,5.35,5.73,5.73,0,0,1-5.31,3H287.9V109h6.83A8.35,8.35,0,0,1,297.18,109.35Zm-6.06,2.41v10.33h3.05a3.3,3.3,0,0,0,3.27-2.31,8.05,8.05,0,0,0,.51-3,7.5,7.5,0,0,0-.76-3.71c-.51-.86-1.51-1.29-3-1.29Z"/><path class="e630ad25-e5f9-4251-b881-638285cc2154" d="M311.17,113.37a4.76,4.76,0,0,1,2,1.73,5.72,5.72,0,0,1,.93,2.42,14.79,14.79,0,0,1,.1,2.33H305.7a2.83,2.83,0,0,0,1.23,2.47,3.15,3.15,0,0,0,1.69.44,2.6,2.6,0,0,0,1.7-.54,2.79,2.79,0,0,0,.63-.8h3.12a3.8,3.8,0,0,1-1.13,2.11,5.7,5.7,0,0,1-4.41,1.71,6.37,6.37,0,0,1-4.12-1.44q-1.79-1.44-1.79-4.69a6.38,6.38,0,0,1,1.61-4.67,5.66,5.66,0,0,1,4.19-1.62A6.56,6.56,0,0,1,311.17,113.37ZM306.59,116a3.2,3.2,0,0,0-.81,1.82h5.27a2.51,2.51,0,0,0-.81-1.85,2.7,2.7,0,0,0-1.82-.63A2.47,2.47,0,0,0,306.59,116Z"/><path class="e630ad25-e5f9-4251-b881-638285cc2154" d="M320.62,108.86l.65,0v2.49c-.17,0-.46,0-.87-.05a1,1,0,0,0-.83.27,1,1,0,0,0-.24.63v1h2v2.16h-2v9.44h-3V115.4h-1.71v-2.16h1.67v-.75a3.91,3.91,0,0,1,.64-2.59q.66-1.05,3.21-1.05Z"/><path class="e630ad25-e5f9-4251-b881-638285cc2154" d="M332.87,123.41a6.45,6.45,0,0,1-9,0,7.28,7.28,0,0,1,0-8.8,6.4,6.4,0,0,1,9,0,7.28,7.28,0,0,1,0,8.8Zm-2.45-1.69a5.48,5.48,0,0,0,0-5.43,2.74,2.74,0,0,0-4.13,0,5.48,5.48,0,0,0,0,5.43,2.72,2.72,0,0,0,4.13,0Z"/><path class="e630ad25-e5f9-4251-b881-638285cc2154" d="M343.05,112.86l.26,0V116l-.51,0h-.37a2.54,2.54,0,0,0-2.48,1.2,4.64,4.64,0,0,0-.36,2.09v5.59h-3.08V113.13h2.92v2a6.75,6.75,0,0,1,1.24-1.6,3.36,3.36,0,0,1,2.23-.72Z"/><path class="e630ad25-e5f9-4251-b881-638285cc2154" d="M359.71,113.18a3.37,3.37,0,0,1,1.37,1,3.44,3.44,0,0,1,.67,1.5,10.8,10.8,0,0,1,.1,1.73l0,7.38h-3.14v-7.45a2.51,2.51,0,0,0-.21-1.1,1.53,1.53,0,0,0-1.5-.82,1.78,1.78,0,0,0-1.76,1.06,3.38,3.38,0,0,0-.24,1.34v7h-3.09v-7a4,4,0,0,0-.21-1.51,1.49,1.49,0,0,0-1.51-.85,1.81,1.81,0,0,0-1.77.85,3.32,3.32,0,0,0-.24,1.43v7h-3.11V113.15h3v1.71a4.89,4.89,0,0,1,1.07-1.3,3.69,3.69,0,0,1,2.31-.68,3.6,3.6,0,0,1,2.17.59,3.35,3.35,0,0,1,1,1.4,3.93,3.93,0,0,1,1.49-1.51,4.61,4.61,0,0,1,2.11-.48A4,4,0,0,1,359.71,113.18Z"/><path class="e630ad25-e5f9-4251-b881-638285cc2154" d="M369.3,117.72a4.67,4.67,0,0,0,1.23-.27.91.91,0,0,0,.66-.87,1,1,0,0,0-.51-1,3.09,3.09,0,0,0-1.48-.28,1.94,1.94,0,0,0-1.56.54,2.18,2.18,0,0,0-.44,1.07h-2.95a4.45,4.45,0,0,1,.86-2.52c.81-1,2.21-1.55,4.19-1.55a7.47,7.47,0,0,1,3.43.77,2.91,2.91,0,0,1,1.5,2.88v5.37c0,.37,0,.82,0,1.35a1.74,1.74,0,0,0,.18.82,1.09,1.09,0,0,0,.45.35v.45h-3.33a4,4,0,0,1-.19-.66,6.52,6.52,0,0,1-.09-.71,6,6,0,0,1-1.47,1.17,4.42,4.42,0,0,1-2.24.57,3.88,3.88,0,0,1-2.64-.91,3.22,3.22,0,0,1-1.05-2.57,3.34,3.34,0,0,1,1.68-3.13,7.45,7.45,0,0,1,2.7-.75Zm1.88,1.43a3.29,3.29,0,0,1-.6.29,4.17,4.17,0,0,1-.82.21l-.7.13a4.8,4.8,0,0,0-1.4.42,1.39,1.39,0,0,0-.73,1.3,1.34,1.34,0,0,0,.45,1.13,1.62,1.62,0,0,0,1.07.35,3.17,3.17,0,0,0,1.85-.58,2.45,2.45,0,0,0,.88-2.11Z"/><path class="e630ad25-e5f9-4251-b881-638285cc2154" d="M375.7,115.42v-2.18h1.63V110h3v3.27h1.9v2.18h-1.9v6.19a1.42,1.42,0,0,0,.18.9,2.16,2.16,0,0,0,1.12.17h.3l.3,0V125l-1.45,0a3.9,3.9,0,0,1-3-.75,2.21,2.21,0,0,1-.52-1.62v-7.21Z"/><path class="e630ad25-e5f9-4251-b881-638285cc2154" d="M387.38,111.74h-3.11v-2.83h3.11Zm-3.11,1.39h3.11v11.71h-3.11Z"/><path class="e630ad25-e5f9-4251-b881-638285cc2154" d="M400.11,123.41a6.46,6.46,0,0,1-9,0,7.28,7.28,0,0,1,0-8.8,6.41,6.41,0,0,1,9,0,7.28,7.28,0,0,1,0,8.8Zm-2.45-1.69a5.48,5.48,0,0,0,0-5.43,2.74,2.74,0,0,0-4.13,0,5.41,5.41,0,0,0,0,5.43,2.72,2.72,0,0,0,4.13,0Z"/><path class="e630ad25-e5f9-4251-b881-638285cc2154" d="M413.22,113.8a3.89,3.89,0,0,1,1.15,3.16v7.88h-3.14v-7.12a3.33,3.33,0,0,0-.24-1.42,1.73,1.73,0,0,0-1.71-.9,2.11,2.11,0,0,0-2.12,1.32,4.56,4.56,0,0,0-.3,1.78v6.34H403.8V113.15h3v1.71a5.25,5.25,0,0,1,1.11-1.3,3.87,3.87,0,0,1,2.38-.71A4.49,4.49,0,0,1,413.22,113.8Z"/></svg>